<?xml version="1.0" encoding="iso-8859-1"?>
<!-- Generator: Adobe Illustrator 16.0.0, SVG Export Plug-In . SVG Version: 6.00 Build 0)  -->
<!DOCTYPE svg PUBLIC "-//W3C//DTD SVG 1.1//EN" "http://www.w3.org/Graphics/SVG/1.1/DTD/svg11.dtd">
<svg version="1.1" id="Capa_1" xmlns="http://www.w3.org/2000/svg" xmlns:xlink="http://www.w3.org/1999/xlink" x="0px" y="0px"
	 width="466.667px" height="466.667px" viewBox="0 0 466.667 466.667" style="enable-background:new 0 0 466.667 466.667;"
	 xml:space="preserve">
<g>
	<path d="M423.571,176.43L256.904,9.764c-13.017-13.018-34.122-13.018-47.14,0L43.098,176.43c-13.018,13.018-13.018,34.123,0,47.141
		c13.018,13.018,34.123,13.018,47.141,0l109.762-109.764v319.527c0,18.408,14.924,33.333,33.333,33.333
		c18.409,0,33.333-14.925,33.333-33.333V113.807l109.764,109.764c6.509,6.508,15.039,9.762,23.57,9.762
		c8.53,0,17.062-3.254,23.569-9.764C436.588,210.552,436.588,189.448,423.571,176.43z"/>
</g>

</svg>
